<svg xmlns="http://www.w3.org/2000/svg" viewBox="0 0 600 600"><rect width="600" height="600" fill="#d9f6e8"/><circle cx="300" cy="230" r="150" fill="#0f6b4b"/><path d="M300 330V200" stroke="#d9f6e8" stroke-width="10" stroke-linecap="round"/><path d="M300 250c-60 0-90-28-90-76 60 0 90 28 90 76z" fill="#6ee7b7"/><path d="M300 280c58 0 86-26 86-72-58 0-86 26-86 72z" fill="#a7f3d0"/><g><rect x="70" y="420" width="120" height="130" rx="22" fill="#fff"/><rect x="85" y="400" width="90" height="26" rx="10" fill="#0f6b4b"/><path d="M130 500c-24 0-36-12-36-30 24 0 36 12 36 30z" fill="#34d399"/><rect x="240" y="420" width="120" height="130" rx="22" fill="#fff"/><rect x="255" y="400" width="90" height="26" rx="10" fill="#ffb347"/><circle cx="300" cy="490" r="22" fill="#ffb347"/><rect x="410" y="420" width="120" height="130" rx="22" fill="#fff"/><rect x="425" y="400" width="90" height="26" rx="10" fill="#4a3df0"/><path d="M470 462v50M446 486h48" stroke="#4a3df0" stroke-width="10" stroke-linecap="round"/></g></svg>